<svg width="28" height="26" viewBox="0 0 28 26" fill="none" xmlns="http://www.w3.org/2000/svg">
<path d="M11.3336 0.826759H16.6666C17.9992 0.82676 19.0836 1.91116 19.0836 3.24375V7.49375H24.6666C25.9991 7.49375 27.0834 8.57732 27.0836 9.90977V24.5768C27.0836 24.8639 26.9692 25.1393 26.7662 25.3424C26.5631 25.5455 26.287 25.6598 25.9996 25.6598H1.99963C1.74825 25.6597 1.50584 25.5726 1.31311 25.4146L1.23401 25.3424C1.03095 25.1392 0.916626 24.864 0.916626 24.5768V12.5768C0.916626 11.2442 2.00102 10.1598 3.33362 10.1598H8.91663V3.24375C8.91663 1.91116 10.001 0.826759 11.3336 0.826759ZM3.08362 23.4938H8.91663V12.3268H3.08362V23.4938ZM11.0836 23.4938H16.9166V2.99375H11.0836V23.4938ZM19.0836 23.4938H24.9166V9.65977H19.0836V23.4938Z" fill="#333333" stroke="white" stroke-width="0.5"/>
</svg>
