<svg width="26" height="28" viewBox="0 0 26 28" fill="none" xmlns="http://www.w3.org/2000/svg">
<path d="M12.9996 3.4931C19.3667 3.4931 24.7494 8.87598 24.7496 15.2431C24.7496 21.6104 19.3668 26.9931 12.9996 26.9931C6.63249 26.9929 1.24957 21.6102 1.24957 15.2431C1.24976 8.87612 6.6326 3.49333 12.9996 3.4931ZM12.9996 5.6601C7.80312 5.66032 3.41675 10.0466 3.41656 15.2431C3.41656 20.4397 7.80301 24.8269 12.9996 24.8271C18.1963 24.8271 22.5836 20.4398 22.5836 15.2431C22.5834 10.0465 18.1962 5.6601 12.9996 5.6601ZM14.0836 8.82709V14.1601H19.4166V16.3271H11.9166V8.82709H14.0836ZM25.5875 4.96478L24.0562 6.49994L20.399 2.8515L21.9283 1.31732L25.5875 4.96478ZM5.57672 2.85345L1.94293 6.49799L0.406799 4.96771L4.04059 1.3222L5.57672 2.85345Z" fill="#333333" stroke="white" stroke-width="0.5"/>
</svg>
