<svg width="18" height="21" viewBox="0 0 18 21" fill="none" xmlns="http://www.w3.org/2000/svg">
<path d="M8.99988 2.75146C8.73418 2.75148 8.47665 2.83625 8.26355 2.9917L8.17468 3.06201L2.17566 8.31201H2.17468C2.04142 8.4291 1.93447 8.5733 1.86121 8.73486C1.8063 8.85598 1.77096 8.98505 1.75671 9.1167L1.74988 9.24951V18.0005C1.75001 18.3318 1.88178 18.65 2.11609 18.8843C2.35047 19.1186 2.66848 19.2505 2.99988 19.2505H5.24988V14.0005C5.24988 13.2711 5.53982 12.5709 6.05554 12.0552C6.57123 11.5396 7.27066 11.2505 7.99988 11.2505H9.99988C10.7291 11.2505 11.4285 11.5396 11.9442 12.0552C12.4599 12.5709 12.7499 13.2711 12.7499 14.0005V19.2505H14.9999C15.3313 19.2505 15.6493 19.1185 15.8837 18.8843C16.118 18.65 16.2498 18.3318 16.2499 18.0005V9.24951C16.2496 9.07209 16.2118 8.89646 16.1385 8.73486C16.0836 8.61365 16.0096 8.50231 15.9198 8.40479L15.8251 8.31201L9.82507 3.06201C9.59697 2.86163 9.3035 2.75146 8.99988 2.75146ZM7.99988 12.7505C7.66848 12.7505 7.35047 12.8815 7.11609 13.1157C6.88167 13.3501 6.74988 13.669 6.74988 14.0005V19.2505H11.2499V14.0005C11.2499 13.669 11.1181 13.3501 10.8837 13.1157C10.6493 12.8815 10.3313 12.7505 9.99988 12.7505H7.99988ZM0.249878 9.2583C0.24716 8.91638 0.308283 8.57709 0.429565 8.2583L0.485229 8.12354C0.642969 7.76704 0.874581 7.4481 1.16492 7.18799L7.16492 1.92822L7.16687 1.92627C7.67101 1.47543 8.32355 1.2261 8.99988 1.22607C9.59184 1.22607 10.1656 1.41718 10.6376 1.76709L10.8329 1.92627L10.8348 1.92822L16.8348 7.18799C17.1241 7.44709 17.3549 7.76477 17.5126 8.11963C17.6508 8.43062 17.7305 8.76395 17.7469 9.10303L17.7499 9.24854V18.0005C17.7498 18.7297 17.4598 19.4292 16.9442 19.9448C16.4285 20.4604 15.7291 20.7505 14.9999 20.7505H2.99988C2.36167 20.7505 1.74606 20.5285 1.25671 20.1274L1.05554 19.9448C0.539931 19.4292 0.250006 18.7297 0.249878 18.0005V9.2583Z" fill="#333333" stroke="white" stroke-width="0.5"/>
</svg>
