<svg width="21" height="17" viewBox="0 0 21 17" fill="none" xmlns="http://www.w3.org/2000/svg">
<path d="M8.50031 0.25C8.64944 0.250059 8.79406 0.294413 8.91632 0.375977L9.03058 0.469727C9.17114 0.610365 9.25031 0.801158 9.25031 1V4.27832L9.47687 4.29883C10.9207 4.43233 13.6234 4.88414 15.9583 6.41504C18.2778 7.93589 20.2503 10.5302 20.2503 15V15.0059C20.2538 15.1656 20.2063 15.3223 20.1146 15.4531C20.0233 15.5833 19.8929 15.6811 19.7425 15.7324C19.5938 15.781 19.4337 15.7813 19.2845 15.7344C19.1352 15.6873 19.0035 15.5949 18.9095 15.4697L18.9046 15.4629L18.8978 15.4551L18.6956 15.2305C17.6689 14.1189 16.4258 13.2274 15.0413 12.6113C13.5646 11.9542 11.9622 11.6263 10.346 11.6504H9.25031V15C9.2495 15.1471 9.20515 15.2908 9.12335 15.4131C9.04146 15.5354 8.92519 15.6307 8.78937 15.6875C8.68745 15.7301 8.57753 15.7498 8.46808 15.7451L8.3587 15.7324C8.2501 15.7115 8.14762 15.667 8.0589 15.6025L7.97491 15.5312L0.975891 8.53223L0.882141 8.41895L0.811829 8.28809C0.773839 8.19678 0.754211 8.09889 0.754211 8C0.754211 7.95036 0.759148 7.90097 0.76886 7.85254L0.811829 7.71191C0.830922 7.66608 0.854542 7.62204 0.882141 7.58105L0.975891 7.46777L7.97589 0.467773C8.11541 0.329393 8.30382 0.251025 8.50031 0.25ZM7.32257 3.2334L2.74347 7.82324L2.56671 8L2.74347 8.17676L7.32257 12.7666L7.75031 13.1943V11L7.76202 10.8662C7.78551 10.7354 7.84332 10.6119 7.93097 10.5098C8.04698 10.3747 8.20737 10.2855 8.38312 10.2578C8.87205 10.1924 9.36392 10.1519 9.85675 10.1367L10.3489 10.1299H10.3509C13.1102 10.1164 15.8008 10.9934 18.0218 12.6309L18.5814 13.0439L18.4124 12.3691C17.6067 9.15166 15.3398 7.49422 13.1829 6.64648C11.0323 5.80128 8.96891 5.75002 8.50031 5.75C8.30146 5.75 8.11067 5.67083 7.97003 5.53027C7.82938 5.38962 7.75031 5.19891 7.75031 5V2.80566L7.32257 3.2334Z" fill="#333333" stroke="white" stroke-width="0.5"/>
</svg>
