<svg width="18" height="20" viewBox="0 0 18 20" fill="none" xmlns="http://www.w3.org/2000/svg">
<path d="M11.4395 18.25C11.24 18.645 10.9478 18.9879 10.584 19.2461C10.1213 19.5745 9.56734 19.7507 9 19.75L8.78809 19.7422C8.29562 19.7045 7.82095 19.5335 7.41602 19.2461C7.05225 18.9879 6.76001 18.645 6.56055 18.25H11.4395ZM9 0.25C9.74009 0.25 10.3666 0.704572 10.623 1.35059L10.6689 1.46582L10.7891 1.49902C13.6439 2.28525 15.75 4.89922 15.75 8V11.6895L17.5303 13.4697C17.6 13.5392 17.6557 13.622 17.6934 13.7129C17.731 13.8038 17.7501 13.9016 17.75 14V16C17.75 16.1989 17.6709 16.3896 17.5303 16.5303C17.3896 16.6709 17.1989 16.75 17 16.75H1C0.850845 16.75 0.706283 16.7056 0.583984 16.624L0.469727 16.5303C0.329075 16.3896 0.25 16.1989 0.25 16V14L0.264648 13.8535C0.274166 13.8055 0.287819 13.7583 0.306641 13.7129C0.325511 13.6674 0.348668 13.6238 0.375977 13.583L0.469727 13.4697L2.25 11.6895V8C2.25 4.89914 4.35679 2.28611 7.21191 1.49902L7.33105 1.46582L7.37695 1.35059C7.63343 0.704572 8.25991 0.25 9 0.25ZM16.25 14.3105L14.4697 12.5303V12.5293C14.3293 12.3896 14.25 12.2 14.25 12V8C14.25 5.10493 11.8951 2.75 9 2.75C6.10493 2.75 3.75 5.10493 3.75 8V12L3.73535 12.1465C3.72583 12.1945 3.71218 12.2417 3.69336 12.2871C3.67449 12.3326 3.65133 12.3762 3.62402 12.417L3.53027 12.5303L1.75 14.3105V15.25H16.25V14.3105Z" fill="#333333" stroke="white" stroke-width="0.5"/>
</svg>
