<svg width="18" height="18" viewBox="0 0 18 18" fill="none" xmlns="http://www.w3.org/2000/svg">
<path d="M7.58594 5.66431C8.77612 5.66432 9.89848 6.09849 10.7725 6.89185L10.9443 7.05591L11.4746 7.58618L10.4141 8.64673L9.88379 8.11646C8.69168 6.92435 6.65145 6.88668 5.40625 8.00415L5.28809 8.11646L3.16602 10.2375C2.55781 10.8477 2.21583 11.6739 2.21582 12.5354C2.21582 13.3429 2.51624 14.1194 3.05469 14.7161L3.16602 14.8333L3.16699 14.8342C3.77734 15.4417 4.6037 15.7825 5.46484 15.7825C6.27225 15.7824 7.04872 15.4828 7.64551 14.9446L7.7627 14.8342V14.8333L8.29199 14.303L9.35254 15.3635L8.82324 15.8938V15.8948C8.38259 16.3361 7.85857 16.6858 7.28223 16.9241C6.77802 17.1325 6.24206 17.2518 5.69824 17.2776L5.46484 17.2825H5.46387C4.8405 17.2836 4.22255 17.1622 3.64648 16.9241C3.0703 16.6858 2.54605 16.336 2.10547 15.8948H2.10645C1.21745 15.0029 0.717773 13.7947 0.717773 12.5354C0.717784 11.2764 1.21681 10.0688 2.10547 9.177L4.22754 7.05591C5.12365 6.15885 6.31629 5.66431 7.58594 5.66431ZM12.5352 0.717041C13.7941 0.717041 15.0021 1.21592 15.8936 2.10474V2.10571C16.7825 2.99748 17.2821 4.205 17.2822 5.46411C17.2822 6.6447 16.8431 7.78039 16.0557 8.65259L15.8936 8.82349L13.7725 10.9446C12.8764 11.8416 11.6836 12.3361 10.4141 12.3362C9.22383 12.3362 8.10154 11.9011 7.22754 11.1077L7.05566 10.9446L6.52539 10.4143L7.58594 9.35376L8.11621 9.88403C9.30845 11.0761 11.3486 11.1131 12.5938 9.99536L12.7119 9.88403L14.834 7.76294C15.4422 7.15281 15.7832 6.32561 15.7832 5.46411C15.7831 4.65672 15.4837 3.87999 14.9453 3.28345L14.834 3.16626H14.833C14.2226 2.55861 13.3964 2.21704 12.5352 2.21704C11.7278 2.2171 10.9513 2.51686 10.3545 3.05493L10.2373 3.16626L9.70703 3.69653L8.64648 2.63599L9.17676 2.10571C10.0683 1.21651 11.276 0.717099 12.5352 0.717041Z" fill="#333333" stroke="white" stroke-width="0.5"/>
</svg>
