<svg width="25" height="28" viewBox="0 0 25 28" fill="none" xmlns="http://www.w3.org/2000/svg">
<path d="M4.5 0.826759H21.833C23.1656 0.826759 24.25 1.91116 24.25 3.24375V21.6598H4.50977C4.17824 21.6684 3.77919 21.7385 3.45898 21.9811C3.12553 22.2338 2.91699 22.6438 2.91699 23.2438C2.91707 23.8435 3.12568 24.2528 3.45898 24.5055C3.69926 24.6874 3.98394 24.7727 4.25098 24.8072L4.50977 24.8268H24.25V26.9938H4.5C3.74442 26.9938 2.80158 26.7413 2.05273 26.148C1.31291 25.5618 0.750088 24.6336 0.75 23.2438V4.57676C0.75 3.18669 1.31286 2.25878 2.05273 1.67246C2.8016 1.07909 3.74437 0.826759 4.5 0.826759ZM4.49316 2.99375C4.16883 3.00242 3.77489 3.07252 3.45703 3.31504C3.12605 3.56765 2.91699 3.97664 2.91699 4.57676V19.4938H22.083V2.99375H4.49316ZM18.917 6.15977V8.32676H7.41699V6.15977H18.917Z" fill="#333333" stroke="white" stroke-width="0.5"/>
</svg>
