<svg width="20" height="19" viewBox="0 0 20 19" fill="none" xmlns="http://www.w3.org/2000/svg">
<path d="M2 0.25H18C18.9649 0.25 19.75 1.03507 19.75 2V13C19.75 13.9649 18.9649 14.75 18 14.75H13.5L13.7998 15.1504L15.4492 17.3496L14.25 18.25L11.7002 14.8496L11.625 14.75H8.375L8.2998 14.8496L5.74902 18.25L4.5498 17.3496L6.2002 15.1504L6.5 14.75H2C1.03507 14.75 0.25 13.9649 0.25 13V2C0.25 1.03507 1.03507 0.25 2 0.25ZM1.75 13.25H18.251V13L18.25 2V1.75H1.75V13.25ZM7.75 9.25V10.75H4.25V9.25H7.75Z" fill="#333333" stroke="white" stroke-width="0.5"/>
</svg>
