<svg width="20" height="18" viewBox="0 0 20 18" fill="none" xmlns="http://www.w3.org/2000/svg">
<path d="M8 0.75C9.25978 0.75 10.4676 1.2508 11.3584 2.1416C12.2492 3.0324 12.75 4.24022 12.75 5.5L12.7432 5.75098C12.7118 6.33468 12.5707 6.90839 12.3271 7.44141C12.0487 8.05048 11.6431 8.59295 11.1367 9.03125L10.8408 9.28613L11.1973 9.44727C12.5532 10.0613 13.7033 11.0533 14.5107 12.3037C15.3181 13.5543 15.7485 15.0114 15.75 16.5C15.75 16.6989 15.6709 16.8896 15.5303 17.0303C15.3896 17.1709 15.1989 17.25 15 17.25C14.8011 17.25 14.6104 17.1709 14.4697 17.0303C14.3291 16.8896 14.25 16.6989 14.25 16.5C14.25 14.8424 13.591 13.2532 12.4189 12.0811C11.2468 10.909 9.6576 10.25 8 10.25C6.3424 10.25 4.75316 10.909 3.58105 12.0811C2.40895 13.2532 1.75 14.8424 1.75 16.5C1.75 16.6989 1.67093 16.8896 1.53027 17.0303C1.38962 17.1709 1.19891 17.25 1 17.25C0.850845 17.25 0.706283 17.2056 0.583984 17.124L0.469727 17.0303C0.329075 16.8896 0.25 16.6989 0.25 16.5L0.254883 16.2217C0.302819 14.9232 0.676744 13.6573 1.3418 12.541L1.48926 12.3037C2.29665 11.0533 3.44683 10.0613 4.80273 9.44727L5.15918 9.28613L4.86328 9.03125C4.35695 8.59295 3.95126 8.05048 3.67285 7.44141C3.39443 6.83216 3.24999 6.16985 3.25 5.5C3.25 4.31893 3.6895 3.18288 4.47852 2.31152L4.6416 2.1416C5.5324 1.2508 6.74022 0.75 8 0.75ZM19 6.08398C19.0989 6.08398 19.1968 6.10363 19.2881 6.1416C19.3339 6.16068 19.378 6.18434 19.4189 6.21191L19.5322 6.30566L19.5332 6.30664C19.605 6.37868 19.6617 6.46507 19.6992 6.55957C19.7366 6.65393 19.7547 6.75498 19.752 6.85645C19.7491 6.95819 19.7254 7.059 19.6826 7.15137C19.6506 7.22048 19.6076 7.28368 19.5566 7.33984L16.8242 10.0723C16.6837 10.212 16.4931 10.291 16.2949 10.291C16.0968 10.291 15.9071 10.2119 15.7666 10.0723H15.7656L14.4268 8.7334H14.4277C14.2881 8.59289 14.209 8.40319 14.209 8.20508C14.209 8.05646 14.253 7.91208 14.334 7.79004L14.4277 7.67578C14.4974 7.6056 14.5806 7.54975 14.6719 7.51172C14.7632 7.47373 14.8611 7.45411 14.96 7.4541C15.0588 7.4541 15.1568 7.47375 15.248 7.51172C15.2939 7.5308 15.3379 7.55445 15.3789 7.58203L15.4922 7.67578L16.1113 8.30566L16.2891 8.48535L16.4668 8.30664L18.4678 6.30566C18.5374 6.23552 18.6207 6.17962 18.7119 6.1416C18.8032 6.10363 18.9011 6.08398 19 6.08398ZM9.24414 2.49707C8.72458 2.28186 8.15899 2.20613 7.60352 2.27441L7.36621 2.3125C6.73577 2.4379 6.15667 2.74763 5.70215 3.20215C5.24763 3.65667 4.9379 4.23577 4.8125 4.86621C4.68716 5.49658 4.75112 6.15035 4.99707 6.74414C5.24305 7.33786 5.66 7.84509 6.19434 8.20215C6.7288 8.55926 7.35721 8.75 8 8.75C8.86195 8.75 9.68836 8.40735 10.2979 7.79785C10.9073 7.18836 11.25 6.36195 11.25 5.5C11.25 4.85721 11.0593 4.2288 10.7021 3.69434C10.3451 3.16 9.83786 2.74305 9.24414 2.49707Z" fill="#333333" stroke="white" stroke-width="0.5"/>
</svg>
