<svg width="19" height="20" viewBox="0 0 19 20" fill="none" xmlns="http://www.w3.org/2000/svg">
<path d="M15.2177 0.953125C15.4476 0.953156 15.6753 0.998877 15.8876 1.08691C16.0469 1.15293 16.1953 1.2416 16.3281 1.35059L16.456 1.4668L18.0351 3.05566C18.361 3.38355 18.5439 3.82771 18.5439 4.29004C18.5438 4.69458 18.4038 5.08467 18.1503 5.39551L18.0351 5.52344L5.74701 17.8516C5.67385 17.9235 5.58715 17.9798 5.49213 18.0166L5.39447 18.0469H5.39154L1.41205 19.041C1.35561 19.047 1.29849 19.0478 1.24213 19.041L1.21283 19.0381L1.18256 19.041C1.12642 19.0478 1.06982 19.047 1.01361 19.041C0.94644 19.0232 0.881769 18.9974 0.822205 18.9619L0.759705 18.9199C0.699115 18.875 0.645928 18.8213 0.601501 18.7607L0.559509 18.6982C0.508432 18.6115 0.475952 18.5149 0.46283 18.415C0.453009 18.3402 0.454021 18.2645 0.466736 18.1904L0.483337 18.1162L0.485291 18.1104L1.48431 14.1143C1.52071 13.9794 1.59133 13.8563 1.68939 13.7568L13.9794 1.4668C14.142 1.30409 14.3353 1.17498 14.5478 1.08691C14.7602 0.998916 14.9878 0.953125 15.2177 0.953125ZM12.0361 5.52344L2.94525 14.623L2.89642 14.6719L2.87982 14.7393L2.34955 16.8486L2.24896 17.252L2.65228 17.1523L4.76263 16.6328L4.83002 16.6162L4.87885 16.5664L13.9794 7.4668L14.1562 7.29004L13.9794 7.11328L12.3896 5.52246L12.2128 5.3457L12.0361 5.52344ZM15.0351 2.52344L13.455 4.11328L13.2802 4.29004L13.455 4.46582L15.0351 6.05566L15.2119 6.2334L15.3896 6.05664L17.1562 4.29004L16.9794 4.11328L15.3896 2.52246L15.2119 2.3457L15.0351 2.52344Z" fill="#333333" stroke="white" stroke-width="0.5"/>
</svg>
