<svg width="27" height="25" viewBox="0 0 27 25" fill="none" xmlns="http://www.w3.org/2000/svg">
<path d="M26.5837 1.1601V24.6601H24.4167V1.1601H26.5837ZM2.58368 1.1601V24.6601H0.416687V1.1601H2.58368ZM6.58368 18.4931V19.8271H9.74969V18.4931H11.9167V19.8271H22.5837V21.9931H11.9167V23.3271H9.74969V21.9931H6.58368V23.3271H4.41669V18.4931H6.58368ZM9.24969 10.4931V11.8271H12.4167V10.4931H14.5837V11.8271H20.4167V10.4931H22.5837V15.3271H20.4167V13.9931H14.5837V15.3271H12.4167V13.9931H9.24969V15.3271H7.08368V13.9931H4.41669V11.8271H7.08368V10.4931H9.24969ZM6.58368 2.4931V3.82709H17.7497V2.4931H19.9167V3.82709H22.5837V5.9931H19.9167V7.32709H17.7497V5.9931H6.58368V7.32709H4.41669V2.4931H6.58368Z" fill="#333333" stroke="white" stroke-width="0.5"/>
</svg>
