<svg width="20" height="19" viewBox="0 0 20 19" fill="none" xmlns="http://www.w3.org/2000/svg">
<path d="M1 0.25H7.99902L8.25195 0.262695C8.83826 0.319223 9.39286 0.564488 9.83105 0.964844L10 1.11816L10.1689 0.964844C10.6071 0.564488 11.1617 0.319223 11.748 0.262695L12.001 0.25H19C19.1492 0.25 19.2937 0.294447 19.416 0.375977L19.5303 0.469727C19.6709 0.610379 19.75 0.801087 19.75 1V16C19.75 16.1989 19.6709 16.3896 19.5303 16.5303C19.3896 16.6709 19.1989 16.75 19 16.75H13.2412C12.72 16.7517 12.2179 16.9332 11.8174 17.2598L11.6514 17.4092L10.5459 18.5146L10.5078 18.5439C10.4364 18.6095 10.3651 18.659 10.2891 18.6914L10.2852 18.6934C10.1026 18.7688 9.89739 18.7688 9.71484 18.6934L9.70996 18.6914C9.63424 18.6589 9.56332 18.6093 9.49219 18.5439H9.49121L9.4541 18.5146L8.34863 17.4092C7.92982 16.9904 7.35016 16.75 6.75781 16.75H1C0.850845 16.75 0.706283 16.7056 0.583984 16.624L0.469727 16.5303C0.329075 16.3896 0.25 16.1989 0.25 16V1L0.264648 0.852539C0.283883 0.756629 0.321716 0.665378 0.375977 0.583984L0.469727 0.469727C0.575103 0.36435 0.708554 0.293524 0.852539 0.264648L1 0.25ZM1.75 15.25H6.75684L7.03711 15.2617C7.68791 15.312 8.31652 15.5298 8.86035 15.8965L9.25 16.1592V3C9.25 2.31109 8.69023 1.75 8 1.75H1.75V15.25ZM12 1.75C11.3098 1.75 10.75 2.31109 10.75 3V16.1582L11.1396 15.8965C11.7573 15.4806 12.4941 15.25 13.2422 15.25H18.25V1.75H12Z" fill="#333333" stroke="white" stroke-width="0.5"/>
</svg>
