<svg width="24" height="24" viewBox="0 0 24 24" fill="none" xmlns="http://www.w3.org/2000/svg">
<path d="M6 2.25H12.9746C12.977 2.25067 12.9796 2.25123 12.9824 2.25195L13.0371 2.26172L13.0459 2.2627C13.1114 2.26669 13.1762 2.27879 13.2383 2.2998V2.30078L13.3086 2.32324L13.3135 2.32617C13.3542 2.34397 13.3939 2.365 13.4307 2.38965L13.5332 2.47266L19.5273 8.4668L19.6104 8.56934L19.6738 8.68652L19.6768 8.69141L19.6973 8.75391L19.7002 8.76074C19.7109 8.79169 19.7193 8.8234 19.7256 8.85547L19.7373 8.95215L19.7383 8.96094C19.7403 8.98344 19.7438 9.00266 19.7471 9.01562C19.7479 9.01885 19.7493 9.02171 19.75 9.02441V20C19.75 20.9649 18.9649 21.75 18 21.75H6C5.03507 21.75 4.25 20.9649 4.25 20V4C4.25 3.03507 5.03507 2.25 6 2.25ZM5.75 20.25H18.252V20L18.25 10V9.75H13C12.8011 9.75 12.6104 9.67093 12.4697 9.53027C12.3291 9.38962 12.25 9.19891 12.25 9V3.75H5.75V20.25ZM15.75 16.25V17.75H8.25V16.25H15.75ZM15.75 12.25V13.75H8.25V12.25H15.75ZM9.75 8.25V9.75H8.25V8.25H9.75ZM13.75 8.25H17.1895L13.75 4.81055V8.25Z" fill="#333333" stroke="white" stroke-width="0.5"/>
</svg>
