<svg width="20" height="20" viewBox="0 0 20 20" fill="none" xmlns="http://www.w3.org/2000/svg">
<path d="M10 0.25C15.3759 0.25 19.75 4.62407 19.75 10C19.75 15.3759 15.3759 19.75 10 19.75C4.62407 19.75 0.25 15.3759 0.25 10C0.25 4.62407 4.62407 0.25 10 0.25ZM6.79102 11.0156C6.97429 13.948 7.81349 16.3823 9.25684 18.1318L9.32617 18.2158L9.43457 18.2227C9.60842 18.2331 9.804 18.25 10 18.25C10.1978 18.25 10.3926 18.2332 10.5674 18.2217L10.6738 18.2148L10.7432 18.1328C12.2687 16.3095 13.1922 13.8334 13.4033 11.0186L13.4238 10.75H6.77441L6.79102 11.0156ZM1.82129 11.0312C1.9863 12.3225 2.45385 13.5555 3.18457 14.6299L3.33398 14.8428C4.15039 15.9654 5.23661 16.8641 6.49219 17.4561L7.15234 17.7676L6.82227 17.1162C5.94973 15.4004 5.42737 13.3363 5.29297 10.9854L5.2793 10.75H1.78516L1.82129 11.0312ZM14.9023 10.9834C14.7514 13.2518 14.177 15.3243 13.2402 17.084L12.8818 17.7568L13.5693 17.4258C14.8098 16.8287 15.8816 15.9313 16.6865 14.8145C17.4914 13.6976 18.0037 12.3968 18.1777 11.0312L18.2139 10.75H14.918L14.9023 10.9834ZM6.58398 2.5C5.38558 3.04748 4.33655 3.87277 3.52344 4.90625L3.36328 5.11621C2.52987 6.24811 1.99944 7.57447 1.82129 8.96875L1.78516 9.25H5.26855L5.2793 9.01172C5.38368 6.80821 5.9437 4.70012 6.91016 2.84277L7.24512 2.19727L6.58398 2.5ZM10 1.75C9.81548 1.75 9.62727 1.76703 9.4668 1.77637L9.35059 1.7832L9.28125 1.87598C7.79259 3.86426 6.92178 6.34462 6.78027 8.98633L6.7666 9.25H13.4229L13.4062 8.98438C13.2022 5.72689 11.7832 3.26467 10.7295 1.87598L10.6602 1.78418L10.5459 1.77734L10.2812 1.75977C10.1894 1.7542 10.0947 1.75 10 1.75ZM13.1562 2.87793C14.1943 4.76591 14.7957 6.86255 14.917 9.01367L14.9307 9.25H18.2148L18.1787 8.96875C18.0019 7.58659 17.4786 6.27108 16.6572 5.14551C15.8358 4.01998 14.7428 3.12016 13.4805 2.53027L12.7871 2.20605L13.1562 2.87793Z" fill="#333333" stroke="white" stroke-width="0.5"/>
</svg>
